<?xml version="1.0" encoding="UTF-8" standalone="no"?>
<!-- Generator: Adobe Illustrator 19.0.0, SVG Export Plug-In . SVG Version: 6.00 Build 0)  -->

<svg
   xmlns:dc="http://purl.org/dc/elements/1.1/"
   xmlns:cc="http://creativecommons.org/ns#"
   xmlns:rdf="http://www.w3.org/1999/02/22-rdf-syntax-ns#"
   xmlns:svg="http://www.w3.org/2000/svg"
   xmlns="http://www.w3.org/2000/svg"
   xmlns:sodipodi="http://sodipodi.sourceforge.net/DTD/sodipodi-0.dtd"
   xmlns:inkscape="http://www.inkscape.org/namespaces/inkscape"
   version="1.1"
   id="Layer_1"
   x="0px"
   y="0px"
   viewBox="0 0 512 512"
   style="enable-background:new 0 0 512 512;"
   xml:space="preserve"
   sodipodi:docname="beer.svg"
   inkscape:version="0.92.0 r15299"><metadata
     id="metadata43"><rdf:RDF><cc:Work
         rdf:about=""><dc:format>image/svg+xml</dc:format><dc:type
           rdf:resource="http://purl.org/dc/dcmitype/StillImage" /></cc:Work></rdf:RDF></metadata><defs
     id="defs41" /><sodipodi:namedview
     pagecolor="#ffffff"
     bordercolor="#666666"
     borderopacity="1"
     objecttolerance="10"
     gridtolerance="10"
     guidetolerance="10"
     inkscape:pageopacity="0"
     inkscape:pageshadow="2"
     inkscape:window-width="1920"
     inkscape:window-height="1017"
     id="namedview39"
     showgrid="false"
     inkscape:zoom="0.921875"
     inkscape:cx="485.39493"
     inkscape:cy="105.15659"
     inkscape:window-x="-8"
     inkscape:window-y="-8"
     inkscape:window-maximized="1"
     inkscape:current-layer="Layer_1" /><g
     id="g6"><g
       id="g4"><path
         d="m 371.511,142.774 c 5.667,-36.597 5.028,-73.6 -1.899,-109.981 L 366.393,15.887 C 364.638,6.669 356.579,0 347.196,0 H 164.804 c -9.383,0 -17.442,6.669 -19.197,15.886 l -3.219,16.906 c -6.927,36.382 -7.567,73.385 -1.899,109.981 l 41.808,269.993 c 2.724,24.975 -8.398,49.321 -29.088,63.612 -7.035,4.859 -10.095,13.732 -7.55,21.896 2.546,8.166 10.105,13.726 18.657,13.726 h 183.369 c 8.552,0 16.11,-5.562 18.656,-13.725 2.546,-8.163 -0.515,-17.035 -7.55,-21.896 -20.69,-14.29 -31.812,-38.637 -29.088,-63.612 z M 320.028,480.916 H 191.973 c 10.92,-19.366 23.74,-50.006 21.113,-72.955 -0.029,-0.257 -0.064,-0.513 -0.103,-0.769 l -34.81,-224.801 h 155.655 l -34.809,224.801 c -0.039,0.255 -0.074,0.512 -0.103,0.769 -2.629,22.949 10.192,53.589 21.112,72.955 z M 175.043,143.307 c -0.984,0 -1.941,0.096 -2.886,0.236 l -1.046,-6.749 c -4.982,-32.174 -4.42,-72.705 1.67,-104.69 l 0.194,-1.02 h 166.049 l 0.193,1.019 c 6.091,31.985 6.652,72.516 1.67,104.69 l -1.008,6.514 z"
         id="path2"
         inkscape:connector-curvature="0"
         sodipodi:nodetypes="sccssccccccsssccscccccccccsccccccccs"
         style="fill:#ffffff" /></g></g><g
     id="g8" /><g
     id="g10" /><g
     id="g12" /><g
     id="g14" /><g
     id="g16" /><g
     id="g18" /><g
     id="g20" /><g
     id="g22" /><g
     id="g24" /><g
     id="g26" /><g
     id="g28" /><g
     id="g30" /><g
     id="g32" /><g
     id="g34" /><g
     id="g36" /></svg>